<?xml version="1.0" standalone="no"?>
<!DOCTYPE svg PUBLIC "-//W3C//DTD SVG 20010904//EN"
 "http://www.w3.org/TR/2001/REC-SVG-20010904/DTD/svg10.dtd">
<svg version="1.0" xmlns="http://www.w3.org/2000/svg"
 width="2000.000000pt" height="2000.000000pt" viewBox="0 0 2000.000000 2000.000000"
 preserveAspectRatio="xMidYMid meet">
<metadata>
Created by potrace 1.14, written by Peter Selinger 2001-2017
</metadata>
<g transform="translate(0.000000,2000.000000) scale(0.100000,-0.100000)"
fill="#000000" stroke="none">
<path d="M0 10000 l0 -10000 10000 0 10000 0 0 10000 0 10000 -10000 0 -10000
0 0 -10000z m7109 3143 c15 -16 579 -898 1251 -1961 673 -1063 1227 -1929
1231 -1925 4 4 182 330 394 723 231 428 398 726 416 743 32 30 79 36 124 15
18 -8 248 -362 840 -1298 449 -708 827 -1298 841 -1311 31 -29 97 -33 134 -8
14 9 677 952 1473 2095 797 1144 1462 2091 1478 2107 35 32 89 36 131 9 15 -9
991 -1218 2168 -2687 1530 -1909 2142 -2679 2146 -2702 7 -38 -18 -86 -53
-102 -31 -14 -457 -15 -483 -1 -11 6 -64 66 -119 134 -55 68 -107 126 -116
130 -27 10 -82 7 -110 -6 -15 -7 -58 -58 -100 -119 -110 -159 -88 -149 -341
-149 -132 0 -222 4 -237 11 -35 16 -60 64 -53 101 3 17 94 157 202 312 108
154 203 296 211 314 7 18 11 43 7 58 -8 33 -415 543 -452 566 -44 29 -97 23
-136 -14 -19 -18 -233 -319 -476 -668 -242 -349 -452 -645 -466 -657 -24 -22
-31 -23 -250 -23 l-226 0 -30 30 c-63 63 -86 23 561 950 321 459 588 846 593
860 6 16 6 36 0 56 -8 29 -393 515 -440 557 -34 30 -91 33 -130 5 -21 -15
-335 -457 -872 -1228 -462 -662 -850 -1210 -862 -1217 -17 -9 -85 -12 -240
-13 l-216 0 -30 25 c-37 31 -46 65 -29 107 8 18 440 645 962 1392 521 748 957
1375 967 1393 36 59 25 77 -210 368 -179 222 -223 272 -252 282 -42 13 -77 8
-107 -15 -12 -9 -567 -800 -1233 -1757 -667 -957 -1225 -1752 -1241 -1767
l-29 -28 -224 0 c-210 0 -225 1 -249 20 -31 25 -45 81 -28 117 6 14 617 893
1356 1954 757 1085 1348 1942 1351 1958 5 21 0 41 -14 65 -40 67 -423 533
-448 544 -47 22 -91 15 -128 -20 -30 -29 -2684 -3829 -2716 -3888 -7 -12 -10
-37 -7 -55 3 -17 81 -150 173 -296 190 -299 196 -316 136 -370 l-32 -29 -210
0 c-138 0 -218 4 -235 12 -14 6 -44 41 -66 77 -55 88 -76 109 -118 121 -27 7
-43 6 -76 -9 -34 -15 -47 -30 -78 -89 -60 -114 -54 -112 -293 -112 -125 0
-212 4 -227 11 -34 16 -60 65 -53 100 3 16 84 175 181 353 131 241 175 332
175 358 0 39 1 38 -247 429 -127 198 -190 289 -208 297 -52 24 -125 6 -152
-37 -38 -61 -503 -930 -503 -939 0 -6 59 -105 132 -219 152 -238 159 -261 100
-314 l-32 -29 -480 0 -480 0 -32 29 c-54 48 -48 77 70 292 74 135 102 196 102
221 0 28 -39 97 -201 354 -110 175 -216 334 -235 352 -25 24 -43 32 -70 32
-38 0 -84 -22 -101 -49 -5 -9 -151 -277 -323 -596 -173 -322 -325 -592 -341
-607 l-29 -28 -205 0 c-125 0 -213 4 -228 11 -34 16 -60 65 -53 100 3 16 215
416 471 889 310 574 465 869 465 888 0 29 -34 87 -319 536 -96 150 -119 181
-149 193 -44 18 -92 10 -123 -21 -13 -13 -330 -590 -704 -1283 -374 -692 -692
-1270 -707 -1285 l-26 -28 -207 0 c-159 0 -212 3 -234 14 -29 16 -51 53 -51
89 0 12 374 713 831 1557 457 844 833 1547 836 1561 3 15 -2 40 -11 57 -42 81
-401 640 -427 665 -23 21 -39 27 -74 27 -35 0 -51 -6 -75 -27 -19 -18 -401
-715 -1076 -1963 -575 -1064 -1057 -1945 -1070 -1957 -24 -22 -31 -23 -232
-23 -188 0 -210 2 -239 20 -37 22 -50 58 -37 105 5 18 540 1013 1188 2211 649
1199 1185 2195 1192 2214 10 28 9 41 -1 66 -25 61 -407 654 -437 679 -44 37
-98 35 -142 -7 -23 -23 -478 -854 -1436 -2628 -772 -1427 -1409 -2604 -1417
-2616 -25 -39 -55 -44 -269 -44 l-206 0 -29 29 c-41 42 -38 81 12 179 64 123
65 122 -144 295 -387 321 -1194 984 -1217 1000 -31 21 -98 22 -128 1 -28 -19
-565 -622 -580 -651 -19 -35 -14 -85 11 -114 12 -15 166 -145 342 -289 176
-144 330 -273 343 -286 33 -38 30 -97 -7 -135 l-29 -29 -267 0 c-182 0 -273 4
-288 12 -12 6 -109 84 -217 173 -108 89 -205 167 -217 173 -32 17 -84 14 -114
-6 -14 -9 -88 -87 -163 -172 -76 -85 -148 -160 -160 -167 -15 -9 -90 -12 -255
-13 l-233 0 -34 34 c-37 37 -42 65 -20 107 16 31 2814 3178 2852 3208 36 28
96 28 138 -1 17 -13 324 -264 682 -559 357 -295 659 -541 671 -547 40 -22 100
-15 132 16 17 16 460 825 1106 2022 631 1169 1090 2006 1106 2023 23 21 39 27
74 27 35 0 51 -6 74 -27z"/>
<path d="M10454 9724 c-37 -18 -13 22 -309 -525 l-244 -451 269 -424 c258
-409 269 -424 283 -402 8 13 139 253 291 535 196 364 276 521 276 543 0 44
-410 694 -455 722 -36 22 -70 23 -111 2z"/>
<path d="M3207 9508 c-28 -10 -558 -597 -597 -660 -26 -43 -25 -68 3 -107 12
-17 300 -261 640 -540 472 -389 627 -511 654 -516 24 -4 45 -1 70 12 32 17 57
58 239 394 112 205 209 389 215 407 8 25 8 40 -2 63 -8 21 -177 166 -550 474
-297 245 -549 451 -561 459 -33 20 -79 26 -111 14z"/>
</g>
</svg>
