<?xml version="1.0" standalone="no"?>
<!DOCTYPE svg PUBLIC "-//W3C//DTD SVG 20010904//EN"
 "http://www.w3.org/TR/2001/REC-SVG-20010904/DTD/svg10.dtd">
<svg version="1.0" xmlns="http://www.w3.org/2000/svg"
 width="500.000000pt" height="500.000000pt" viewBox="0 0 500.000000 500.000000"
 preserveAspectRatio="xMidYMid meet">
<metadata>
Created by potrace 1.14, written by Peter Selinger 2001-2017
</metadata>
<g transform="translate(0.000000,500.000000) scale(0.100000,-0.100000)"
fill="#000000" stroke="none">
<path d="M2408 4473 c-487 -840 -616 -1067 -646 -1136 -52 -120 -71 -228 -68
-382 5 -225 28 -283 278 -716 204 -353 307 -530 318 -549 29 -48 100 -172 100
-176 0 -2 16 -28 35 -59 20 -30 39 -62 42 -72 3 -9 21 -40 39 -70 32 -54 33
-54 47 -31 18 29 151 257 185 318 14 25 64 113 112 195 344 591 337 577 344
700 6 95 -43 248 -102 323 l-18 24 -263 -456 c-145 -251 -267 -456 -271 -456
-13 0 -453 773 -477 836 -26 72 -37 135 -37 214 0 131 28 217 118 374 35 61
86 149 113 196 27 47 61 105 75 130 27 47 33 58 190 330 53 91 103 187 112
215 43 125 29 255 -40 383 -25 45 -48 82 -52 82 -5 0 -65 -98 -134 -217z"/>
<path d="M2800 4231 c0 -5 -73 -135 -162 -288 -88 -153 -169 -292 -179 -310
-10 -17 -71 -123 -135 -235 -155 -267 -167 -297 -167 -418 0 -78 4 -105 24
-155 25 -61 350 -635 359 -634 3 0 51 80 106 177 133 231 425 736 428 740 3 3
155 -255 186 -317 81 -160 83 -368 6 -536 -12 -27 -41 -79 -62 -115 -91 -149
-114 -221 -110 -334 2 -45 11 -103 21 -131 19 -54 85 -175 96 -175 6 0 112
178 197 330 14 25 49 87 79 138 123 209 162 330 168 512 7 207 -32 346 -157
564 -39 66 -79 137 -90 156 -11 19 -53 91 -93 160 -39 69 -84 148 -100 175
-56 101 -137 236 -140 233 -3 -3 -228 -390 -284 -489 -148 -261 -247 -427
-252 -423 -11 6 -69 112 -69 125 0 8 108 202 150 269 5 8 40 69 78 135 38 66
93 163 123 215 71 123 85 153 99 223 23 113 1 218 -74 351 -36 64 -46 76 -46
57z"/>
<path d="M1427 2776 c-55 -96 -75 -167 -75 -260 1 -130 3 -135 308 -661 9 -16
66 -115 127 -220 551 -957 749 -1295 754 -1295 4 0 69 109 145 241 149 259
144 250 264 458 45 78 86 164 95 197 33 125 16 240 -58 373 -40 74 -41 75 -56
51 -9 -12 -98 -165 -199 -339 -100 -174 -186 -317 -190 -319 -5 -1 -29 35 -55
80 -90 157 -99 173 -128 221 -16 26 -29 49 -29 52 0 2 -26 48 -58 102 -32 54
-164 280 -292 503 -128 223 -252 437 -275 475 -23 39 -83 143 -134 232 -51 90
-96 165 -100 167 -4 3 -24 -23 -44 -58z"/>
</g>
</svg>
